<svg width="60" height="60" viewBox="0 0 60 60" fill="none" xmlns="http://www.w3.org/2000/svg">
<path d="M28.2321 8.23245C28.7009 7.76378 29.3366 7.50049 29.9996 7.50049C30.6625 7.50049 31.2982 7.76378 31.7671 8.23245L41.7671 18.2325C42.2225 18.704 42.4744 19.3355 42.4687 19.991C42.463 20.6464 42.2001 21.2735 41.7366 21.737C41.2731 22.2005 40.646 22.4634 39.9906 22.4691C39.3351 22.4748 38.7036 22.2228 38.2321 21.7675L32.4996 16.035V40C32.4996 40.663 32.2362 41.2989 31.7673 41.7677C31.2985 42.2366 30.6626 42.5 29.9996 42.5C29.3365 42.5 28.7006 42.2366 28.2318 41.7677C27.7629 41.2989 27.4996 40.663 27.4996 40V16.035L21.7671 21.7675C21.2955 22.2228 20.664 22.4748 20.0086 22.4691C19.3531 22.4634 18.726 22.2005 18.2625 21.737C17.799 21.2735 17.5361 20.6464 17.5304 19.991C17.5247 19.3355 17.7767 18.704 18.2321 18.2325L28.2321 8.23245Z" fill="#70938D"/>
<path d="M15 42.5C15 41.837 14.7366 41.2011 14.2678 40.7322C13.7989 40.2634 13.163 40 12.5 40C11.837 40 11.2011 40.2634 10.7322 40.7322C10.2634 41.2011 10 41.837 10 42.5V44C10 48.705 13.795 52.5 18.5 52.5H41.5C46.205 52.5 50 48.705 50 44V42.5C50 41.837 49.7366 41.2011 49.2678 40.7322C48.7989 40.2634 48.163 40 47.5 40C46.837 40 46.2011 40.2634 45.7322 40.7322C45.2634 41.2011 45 41.837 45 42.5V44C45 45.945 43.445 47.5 41.5 47.5H18.5C16.555 47.5 15 45.945 15 44V42.5Z" fill="#70938D"/>
</svg>
